solid OpenSCAD_Model
  facet normal 0.29026 -0.956948 0
    outer loop
      vertex 78.2803 9.07686 0
      vertex 79.0307 9.30447 10
      vertex 78.2803 9.07686 10
    endloop
  endfacet
  facet normal 0.29026 -0.956948 0
    outer loop
      vertex 79.0307 9.30447 10
      vertex 78.2803 9.07686 0
      vertex 79.0307 9.30447 0
    endloop
  endfacet
  facet normal -0.634444 -0.772969 0
    outer loop
      vertex 26.6716 10.1716 0
      vertex 27.2777 9.67412 10
      vertex 26.6716 10.1716 10
    endloop
  endfacet
  facet normal -0.634444 -0.772969 -0
    outer loop
      vertex 27.2777 9.67412 10
      vertex 26.6716 10.1716 0
      vertex 27.2777 9.67412 0
    endloop
  endfacet
  facet normal -0.956941 -0.290283 0
    outer loop
      vertex 25.8045 11.4693 0
      vertex 25.5769 12.2196 10
      vertex 25.5769 12.2196 0
    endloop
  endfacet
  facet normal -0.956941 -0.290283 0
    outer loop
      vertex 25.5769 12.2196 10
      vertex 25.8045 11.4693 0
      vertex 25.8045 11.4693 10
    endloop
  endfacet
  facet normal -0.99518 -0.0980643 0
    outer loop
      vertex 25.5769 12.2196 0
      vertex 25.5 13 10
      vertex 25.5 13 0
    endloop
  endfacet
  facet normal -0.99518 -0.0980643 0
    outer loop
      vertex 25.5 13 10
      vertex 25.5769 12.2196 0
      vertex 25.5769 12.2196 10
    endloop
  endfacet
  facet normal 0.881957 -0.471329 0
    outer loop
      vertex 80.8259 10.7777 10
      vertex 81.1955 11.4693 0
      vertex 81.1955 11.4693 10
    endloop
  endfacet
  facet normal 0.881957 -0.471329 0
    outer loop
      vertex 81.1955 11.4693 0
      vertex 80.8259 10.7777 10
      vertex 80.8259 10.7777 0
    endloop
  endfacet
  facet normal 0.995179 0.0980767 0
    outer loop
      vertex 81.5 97 10
      vertex 81.4231 97.7803 0
      vertex 81.4231 97.7803 10
    endloop
  endfacet
  facet normal 0.995179 0.0980767 0
    outer loop
      vertex 81.4231 97.7803 0
      vertex 81.5 97 10
      vertex 81.5 97 0
    endloop
  endfacet
  facet normal -0.881957 0.471329 0
    outer loop
      vertex 25.8045 98.5307 0
      vertex 26.1741 99.2223 10
      vertex 26.1741 99.2223 0
    endloop
  endfacet
  facet normal -0.881957 0.471329 0
    outer loop
      vertex 26.1741 99.2223 10
      vertex 25.8045 98.5307 0
      vertex 25.8045 98.5307 10
    endloop
  endfacet
  facet normal 0.289547 0.957164 -0
    outer loop
      vertex 79.0307 100.696 0
      vertex 78.2803 100.923 10
      vertex 79.0307 100.696 10
    endloop
  endfacet
  facet normal 0.289547 0.957164 0
    outer loop
      vertex 78.2803 100.923 10
      vertex 79.0307 100.696 0
      vertex 78.2803 100.923 0
    endloop
  endfacet
  facet normal 0 -1 0
    outer loop
      vertex 29.5 9 0
      vertex 77.5 9 10
      vertex 29.5 9 10
    endloop
  endfacet
  facet normal 0 -1 -0
    outer loop
      vertex 77.5 9 10
      vertex 29.5 9 0
      vertex 77.5 9 0
    endloop
  endfacet
  facet normal 0.772956 -0.634459 0
    outer loop
      vertex 80.3284 10.1716 10
      vertex 80.8259 10.7777 0
      vertex 80.8259 10.7777 10
    endloop
  endfacet
  facet normal 0.772956 -0.634459 0
    outer loop
      vertex 80.8259 10.7777 0
      vertex 80.3284 10.1716 10
      vertex 80.3284 10.1716 0
    endloop
  endfacet
  facet normal 0.956951 0.290248 0
    outer loop
      vertex 81.4231 97.7803 10
      vertex 81.1955 98.5307 0
      vertex 81.1955 98.5307 10
    endloop
  endfacet
  facet normal 0.956951 0.290248 0
    outer loop
      vertex 81.1955 98.5307 0
      vertex 81.4231 97.7803 10
      vertex 81.4231 97.7803 0
    endloop
  endfacet
  facet normal 1 -0 0
    outer loop
      vertex 81.5 13 10
      vertex 81.5 97 0
      vertex 81.5 97 10
    endloop
  endfacet
  facet normal 1 0 0
    outer loop
      vertex 81.5 97 0
      vertex 81.5 13 10
      vertex 81.5 13 0
    endloop
  endfacet
  facet normal 0.99518 -0.0980643 0
    outer loop
      vertex 81.4231 12.2196 10
      vertex 81.5 13 0
      vertex 81.5 13 10
    endloop
  endfacet
  facet normal 0.99518 -0.0980643 0
    outer loop
      vertex 81.5 13 0
      vertex 81.4231 12.2196 10
      vertex 81.4231 12.2196 0
    endloop
  endfacet
  facet normal -0.881957 -0.471329 0
    outer loop
      vertex 26.1741 10.7777 0
      vertex 25.8045 11.4693 10
      vertex 25.8045 11.4693 0
    endloop
  endfacet
  facet normal -0.881957 -0.471329 0
    outer loop
      vertex 25.8045 11.4693 10
      vertex 26.1741 10.7777 0
      vertex 26.1741 10.7777 10
    endloop
  endfacet
  facet normal -0.995179 0.0980767 0
    outer loop
      vertex 25.5 97 0
      vertex 25.5769 97.7803 10
      vertex 25.5769 97.7803 0
    endloop
  endfacet
  facet normal -0.995179 0.0980767 0
    outer loop
      vertex 25.5769 97.7803 10
      vertex 25.5 97 0
      vertex 25.5 97 10
    endloop
  endfacet
  facet normal 0.956941 -0.290283 0
    outer loop
      vertex 81.1955 11.4693 10
      vertex 81.4231 12.2196 0
      vertex 81.4231 12.2196 10
    endloop
  endfacet
  facet normal 0.956941 -0.290283 0
    outer loop
      vertex 81.4231 12.2196 0
      vertex 81.1955 11.4693 10
      vertex 81.1955 11.4693 0
    endloop
  endfacet
  facet normal -1 0 0
    outer loop
      vertex 25.5 13 0
      vertex 25.5 97 10
      vertex 25.5 97 0
    endloop
  endfacet
  facet normal -1 -0 0
    outer loop
      vertex 25.5 97 10
      vertex 25.5 13 0
      vertex 25.5 13 10
    endloop
  endfacet
  facet normal 0.0980262 -0.995184 0
    outer loop
      vertex 77.5 9 0
      vertex 78.2803 9.07686 10
      vertex 77.5 9 10
    endloop
  endfacet
  facet normal 0.0980262 -0.995184 0
    outer loop
      vertex 78.2803 9.07686 10
      vertex 77.5 9 0
      vertex 78.2803 9.07686 0
    endloop
  endfacet
  facet normal -0.772956 -0.634459 0
    outer loop
      vertex 26.6716 10.1716 0
      vertex 26.1741 10.7777 10
      vertex 26.1741 10.7777 0
    endloop
  endfacet
  facet normal -0.772956 -0.634459 0
    outer loop
      vertex 26.1741 10.7777 10
      vertex 26.6716 10.1716 0
      vertex 26.6716 10.1716 10
    endloop
  endfacet
  facet normal -0.772956 0.634459 0
    outer loop
      vertex 26.1741 99.2223 0
      vertex 26.6716 99.8284 10
      vertex 26.6716 99.8284 0
    endloop
  endfacet
  facet normal -0.772956 0.634459 0
    outer loop
      vertex 26.6716 99.8284 10
      vertex 26.1741 99.2223 0
      vertex 26.1741 99.2223 10
    endloop
  endfacet
  facet normal -0.289582 0.957153 0
    outer loop
      vertex 28.7196 100.923 0
      vertex 27.9693 100.696 10
      vertex 28.7196 100.923 10
    endloop
  endfacet
  facet normal -0.289582 0.957153 0
    outer loop
      vertex 27.9693 100.696 10
      vertex 28.7196 100.923 0
      vertex 27.9693 100.696 0
    endloop
  endfacet
  facet normal -0.290295 -0.956937 0
    outer loop
      vertex 27.9693 9.30447 0
      vertex 28.7196 9.07686 10
      vertex 27.9693 9.30447 10
    endloop
  endfacet
  facet normal -0.290295 -0.956937 -0
    outer loop
      vertex 28.7196 9.07686 10
      vertex 27.9693 9.30447 0
      vertex 28.7196 9.07686 0
    endloop
  endfacet
  facet normal 0 1 -0
    outer loop
      vertex 77.5 101 0
      vertex 29.5 101 10
      vertex 77.5 101 10
    endloop
  endfacet
  facet normal 0 1 0
    outer loop
      vertex 29.5 101 10
      vertex 77.5 101 0
      vertex 29.5 101 0
    endloop
  endfacet
  facet normal -0.0980137 -0.995185 0
    outer loop
      vertex 28.7196 9.07686 0
      vertex 29.5 9 10
      vertex 28.7196 9.07686 10
    endloop
  endfacet
  facet normal -0.0980137 -0.995185 -0
    outer loop
      vertex 29.5 9 10
      vertex 28.7196 9.07686 0
      vertex 29.5 9 0
    endloop
  endfacet
  facet normal -0.956951 0.290248 0
    outer loop
      vertex 25.5769 97.7803 0
      vertex 25.8045 98.5307 10
      vertex 25.8045 98.5307 0
    endloop
  endfacet
  facet normal -0.956951 0.290248 0
    outer loop
      vertex 25.8045 98.5307 10
      vertex 25.5769 97.7803 0
      vertex 25.5769 97.7803 10
    endloop
  endfacet
  facet normal 0.772956 0.634459 0
    outer loop
      vertex 80.8259 99.2223 10
      vertex 80.3284 99.8284 0
      vertex 80.3284 99.8284 10
    endloop
  endfacet
  facet normal 0.772956 0.634459 0
    outer loop
      vertex 80.3284 99.8284 0
      vertex 80.8259 99.2223 10
      vertex 80.8259 99.2223 0
    endloop
  endfacet
  facet normal -0.634535 0.772894 0
    outer loop
      vertex 27.2777 100.326 0
      vertex 26.6716 99.8284 10
      vertex 27.2777 100.326 10
    endloop
  endfacet
  facet normal -0.634535 0.772894 0
    outer loop
      vertex 26.6716 99.8284 10
      vertex 27.2777 100.326 0
      vertex 26.6716 99.8284 0
    endloop
  endfacet
  facet normal -0.471726 0.881745 0
    outer loop
      vertex 27.9693 100.696 0
      vertex 27.2777 100.326 10
      vertex 27.9693 100.696 10
    endloop
  endfacet
  facet normal -0.471726 0.881745 0
    outer loop
      vertex 27.2777 100.326 10
      vertex 27.9693 100.696 0
      vertex 27.2777 100.326 0
    endloop
  endfacet
  facet normal -0.0981906 0.995168 0
    outer loop
      vertex 29.5 101 0
      vertex 28.7196 100.923 10
      vertex 29.5 101 10
    endloop
  endfacet
  facet normal -0.0981906 0.995168 0
    outer loop
      vertex 28.7196 100.923 10
      vertex 29.5 101 0
      vertex 28.7196 100.923 0
    endloop
  endfacet
  facet normal 0.471379 -0.881931 0
    outer loop
      vertex 79.0307 9.30447 0
      vertex 79.7223 9.67412 10
      vertex 79.0307 9.30447 10
    endloop
  endfacet
  facet normal 0.471379 -0.881931 0
    outer loop
      vertex 79.7223 9.67412 10
      vertex 79.0307 9.30447 0
      vertex 79.7223 9.67412 0
    endloop
  endfacet
  facet normal 0.634444 -0.772969 0
    outer loop
      vertex 79.7223 9.67412 0
      vertex 80.3284 10.1716 10
      vertex 79.7223 9.67412 10
    endloop
  endfacet
  facet normal 0.634444 -0.772969 0
    outer loop
      vertex 80.3284 10.1716 10
      vertex 79.7223 9.67412 0
      vertex 80.3284 10.1716 0
    endloop
  endfacet
  facet normal 0 0 1
    outer loop
      vertex 35.2969 17.02 10
      vertex 33.701 16.4975 10
      vertex 33.8 16 10
    endloop
  endfacet
  facet normal 0 0 1
    outer loop
      vertex 32.9975 17.201 10
      vertex 34 18.5981 10
      vertex 33.52 18.7969 10
    endloop
  endfacet
  facet normal 0 0 1
    outer loop
      vertex 32.5 17.3 10
      vertex 33.52 18.7969 10
      vertex 33.5 19 10
    endloop
  endfacet
  facet normal 0 0 1
    outer loop
      vertex 34.6213 18.1213 10
      vertex 33.4192 16.9192 10
      vertex 33.701 16.4975 10
    endloop
  endfacet
  facet normal 0 0 1
    outer loop
      vertex 33.52 91.2031 10
      vertex 32.5 92.7 10
      vertex 33.5 91 10
    endloop
  endfacet
  facet normal 0 0 1
    outer loop
      vertex 32.0025 92.799 10
      vertex 33.5 91 10
      vertex 32.5 92.7 10
    endloop
  endfacet
  facet normal 0 0 1
    outer loop
      vertex 34 18.5981 10
      vertex 32.9975 17.201 10
      vertex 33.4192 16.9192 10
    endloop
  endfacet
  facet normal 0 0 1
    outer loop
      vertex 31.5808 93.0808 10
      vertex 33.5 91 10
      vertex 32.0025 92.799 10
    endloop
  endfacet
  facet normal 0 0 1
    outer loop
      vertex 33.52 18.7969 10
      vertex 32.5 17.3 10
      vertex 32.9975 17.201 10
    endloop
  endfacet
  facet normal 0 0 1
    outer loop
      vertex 25.5 97 10
      vertex 33.5 91 10
      vertex 31.5808 93.0808 10
    endloop
  endfacet
  facet normal 0 0 1
    outer loop
      vertex 33.5 19 10
      vertex 32.0025 17.201 10
      vertex 32.5 17.3 10
    endloop
  endfacet
  facet normal 0 0 1
    outer loop
      vertex 33.5 91 10
      vertex 25.5 97 10
      vertex 33.5 19 10
    endloop
  endfacet
  facet normal 0 0 1
    outer loop
      vertex 33.5 19 10
      vertex 31.5808 16.9192 10
      vertex 32.0025 17.201 10
    endloop
  endfacet
  facet normal 0 0 1
    outer loop
      vertex 25.5 97 10
      vertex 31.5808 93.0808 10
      vertex 31.299 93.5025 10
    endloop
  endfacet
  facet normal 0 0 1
    outer loop
      vertex 25.5 13 10
      vertex 33.5 19 10
      vertex 25.5 97 10
    endloop
  endfacet
  facet normal 0 0 1
    outer loop
      vertex 25.5 97 10
      vertex 31.299 93.5025 10
      vertex 31.2 94 10
    endloop
  endfacet
  facet normal 0 0 1
    outer loop
      vertex 33.5 19 10
      vertex 25.5 13 10
      vertex 31.5808 16.9192 10
    endloop
  endfacet
  facet normal 0 0 1
    outer loop
      vertex 35.0981 92.5 10
      vertex 33.4192 93.0808 10
      vertex 34.6213 91.8787 10
    endloop
  endfacet
  facet normal 0 0 1
    outer loop
      vertex 34.6213 91.8787 10
      vertex 33.4192 93.0808 10
      vertex 34 91.4019 10
    endloop
  endfacet
  facet normal -0 0 1
    outer loop
      vertex 32.9975 92.799 10
      vertex 34 91.4019 10
      vertex 33.4192 93.0808 10
    endloop
  endfacet
  facet normal -0 0 1
    outer loop
      vertex 32.5 92.7 10
      vertex 33.52 91.2031 10
      vertex 32.9975 92.799 10
    endloop
  endfacet
  facet normal 0 0 1
    outer loop
      vertex 34 91.4019 10
      vertex 32.9975 92.799 10
      vertex 33.52 91.2031 10
    endloop
  endfacet
  facet normal 0 0 1
    outer loop
      vertex 73.5 91 10
      vertex 81.5 97 10
      vertex 75.4192 93.0808 10
    endloop
  endfacet
  facet normal 0 0 1
    outer loop
      vertex 81.5 13 10
      vertex 75.701 16.4975 10
      vertex 75.8 16 10
    endloop
  endfacet
  facet normal 0 0 1
    outer loop
      vertex 81.5 97 10
      vertex 73.5 91 10
      vertex 81.5 13 10
    endloop
  endfacet
  facet normal 0 0 1
    outer loop
      vertex 81.5 13 10
      vertex 75.4192 16.9192 10
      vertex 75.701 16.4975 10
    endloop
  endfacet
  facet normal 0 0 1
    outer loop
      vertex 73.5 91 10
      vertex 75.4192 93.0808 10
      vertex 74.9975 92.799 10
    endloop
  endfacet
  facet normal -0 0 1
    outer loop
      vertex 73.5 19 10
      vertex 81.5 13 10
      vertex 73.5 91 10
    endloop
  endfacet
  facet normal 0 0 1
    outer loop
      vertex 73.5 91 10
      vertex 74.9975 92.799 10
      vertex 74.5 92.7 10
    endloop
  endfacet
  facet normal 0 0 1
    outer loop
      vertex 81.5 13 10
      vertex 73.5 19 10
      vertex 75.4192 16.9192 10
    endloop
  endfacet
  facet normal 0 0 1
    outer loop
      vertex 73.48 91.2031 10
      vertex 74.5 92.7 10
      vertex 74.0025 92.799 10
    endloop
  endfacet
  facet normal 0 0 1
    outer loop
      vertex 75.4192 16.9192 10
      vertex 73.5 19 10
      vertex 74.9975 17.201 10
    endloop
  endfacet
  facet normal 0 0 1
    outer loop
      vertex 73 91.4019 10
      vertex 74.0025 92.799 10
      vertex 73.5808 93.0808 10
    endloop
  endfacet
  facet normal 0 0 1
    outer loop
      vertex 74.9975 17.201 10
      vertex 73.5 19 10
      vertex 74.5 17.3 10
    endloop
  endfacet
  facet normal -0 0 1
    outer loop
      vertex 73.48 18.7969 10
      vertex 74.5 17.3 10
      vertex 73.5 19 10
    endloop
  endfacet
  facet normal 0 0 1
    outer loop
      vertex 74.5 92.7 10
      vertex 73.48 91.2031 10
      vertex 73.5 91 10
    endloop
  endfacet
  facet normal 0 0 1
    outer loop
      vertex 71.9019 92.5 10
      vertex 73.5808 93.0808 10
      vertex 73.299 93.5025 10
    endloop
  endfacet
  facet normal 0 0 1
    outer loop
      vertex 71.7031 92.98 10
      vertex 73.299 93.5025 10
      vertex 73.2 94 10
    endloop
  endfacet
  facet normal 0 0 1
    outer loop
      vertex 74.0025 92.799 10
      vertex 73 91.4019 10
      vertex 73.48 91.2031 10
    endloop
  endfacet
  facet normal 0 0 1
    outer loop
      vertex 75.4192 94.9192 10
      vertex 81.5 97 10
      vertex 81.4231 97.7803 10
    endloop
  endfacet
  facet normal 0 0 1
    outer loop
      vertex 75.701 93.5025 10
      vertex 81.5 97 10
      vertex 75.8 94 10
    endloop
  endfacet
  facet normal 0 0 1
    outer loop
      vertex 75.4192 94.9192 10
      vertex 81.4231 97.7803 10
      vertex 81.1955 98.5307 10
    endloop
  endfacet
  facet normal 0 0 1
    outer loop
      vertex 75.4192 93.0808 10
      vertex 81.5 97 10
      vertex 75.701 93.5025 10
    endloop
  endfacet
  facet normal 0 0 1
    outer loop
      vertex 75.4192 94.9192 10
      vertex 81.1955 98.5307 10
      vertex 80.8259 99.2223 10
    endloop
  endfacet
  facet normal -0 0 1
    outer loop
      vertex 75.701 15.5025 10
      vertex 81.5 13 10
      vertex 75.8 16 10
    endloop
  endfacet
  facet normal 0 0 1
    outer loop
      vertex 75.4192 94.9192 10
      vertex 80.8259 99.2223 10
      vertex 80.3284 99.8284 10
    endloop
  endfacet
  facet normal -0 0 1
    outer loop
      vertex 75.4192 15.0808 10
      vertex 81.5 13 10
      vertex 75.701 15.5025 10
    endloop
  endfacet
  facet normal 0 0 1
    outer loop
      vertex 75.4192 94.9192 10
      vertex 80.3284 99.8284 10
      vertex 79.7223 100.326 10
    endloop
  endfacet
  facet normal 0 0 1
    outer loop
      vertex 81.5 13 10
      vertex 75.4192 15.0808 10
      vertex 81.4231 12.2196 10
    endloop
  endfacet
  facet normal 0 0 1
    outer loop
      vertex 75.4192 94.9192 10
      vertex 79.7223 100.326 10
      vertex 79.0307 100.696 10
    endloop
  endfacet
  facet normal 0 0 1
    outer loop
      vertex 81.4231 12.2196 10
      vertex 75.4192 15.0808 10
      vertex 81.1955 11.4693 10
    endloop
  endfacet
  facet normal 0 0 1
    outer loop
      vertex 75.4192 94.9192 10
      vertex 79.0307 100.696 10
      vertex 78.2803 100.923 10
    endloop
  endfacet
  facet normal 0 0 1
    outer loop
      vertex 81.1955 11.4693 10
      vertex 75.4192 15.0808 10
      vertex 80.8259 10.7777 10
    endloop
  endfacet
  facet normal 0 0 1
    outer loop
      vertex 75.4192 94.9192 10
      vertex 78.2803 100.923 10
      vertex 77.5 101 10
    endloop
  endfacet
  facet normal 0 0 1
    outer loop
      vertex 80.8259 10.7777 10
      vertex 75.4192 15.0808 10
      vertex 80.3284 10.1716 10
    endloop
  endfacet
  facet normal 0 0 1
    outer loop
      vertex 80.3284 10.1716 10
      vertex 75.4192 15.0808 10
      vertex 79.7223 9.67412 10
    endloop
  endfacet
  facet normal 0 0 1
    outer loop
      vertex 81.5 97 10
      vertex 75.701 94.4975 10
      vertex 75.8 94 10
    endloop
  endfacet
  facet normal 0 0 1
    outer loop
      vertex 81.5 97 10
      vertex 75.4192 94.9192 10
      vertex 75.701 94.4975 10
    endloop
  endfacet
  facet normal 0 0 1
    outer loop
      vertex 77.5 101 10
      vertex 74.9975 95.201 10
      vertex 75.4192 94.9192 10
    endloop
  endfacet
  facet normal 0 0 1
    outer loop
      vertex 77.5 101 10
      vertex 74.5 95.3 10
      vertex 74.9975 95.201 10
    endloop
  endfacet
  facet normal 0 0 1
    outer loop
      vertex 77.5 101 10
      vertex 74.0025 95.201 10
      vertex 74.5 95.3 10
    endloop
  endfacet
  facet normal 0 0 1
    outer loop
      vertex 77.5 101 10
      vertex 73.5808 94.9192 10
      vertex 74.0025 95.201 10
    endloop
  endfacet
  facet normal 0 0 1
    outer loop
      vertex 71.5 93 10
      vertex 73.5808 94.9192 10
      vertex 77.5 101 10
    endloop
  endfacet
  facet normal 0 0 1
    outer loop
      vertex 73.5808 93.0808 10
      vertex 72.3787 91.8787 10
      vertex 73 91.4019 10
    endloop
  endfacet
  facet normal 0 0 1
    outer loop
      vertex 71.5 93 10
      vertex 73.2 94 10
      vertex 73.299 94.4975 10
    endloop
  endfacet
  facet normal 0 0 1
    outer loop
      vertex 73.5808 93.0808 10
      vertex 71.9019 92.5 10
      vertex 72.3787 91.8787 10
    endloop
  endfacet
  facet normal 0 0 1
    outer loop
      vertex 73.5808 94.9192 10
      vertex 71.5 93 10
      vertex 73.299 94.4975 10
    endloop
  endfacet
  facet normal 0 0 1
    outer loop
      vertex 73.299 93.5025 10
      vertex 71.7031 92.98 10
      vertex 71.9019 92.5 10
    endloop
  endfacet
  facet normal 0 0 1
    outer loop
      vertex 73.2 94 10
      vertex 71.5 93 10
      vertex 71.7031 92.98 10
    endloop
  endfacet
  facet normal 0 0 1
    outer loop
      vertex 77.5 101 10
      vertex 35.5 93 10
      vertex 71.5 93 10
    endloop
  endfacet
  facet normal -0 0 1
    outer loop
      vertex 29.5 101 10
      vertex 35.5 93 10
      vertex 77.5 101 10
    endloop
  endfacet
  facet normal -0 0 1
    outer loop
      vertex 33.701 93.5025 10
      vertex 35.2969 92.98 10
      vertex 33.8 94 10
    endloop
  endfacet
  facet normal 0 0 1
    outer loop
      vertex 35.2969 92.98 10
      vertex 33.701 93.5025 10
      vertex 35.0981 92.5 10
    endloop
  endfacet
  facet normal -0 0 1
    outer loop
      vertex 33.4192 93.0808 10
      vertex 35.0981 92.5 10
      vertex 33.701 93.5025 10
    endloop
  endfacet
  facet normal -0 -0 1
    outer loop
      vertex 33.701 94.4975 10
      vertex 35.5 93 10
      vertex 33.4192 94.9192 10
    endloop
  endfacet
  facet normal 0 0 1
    outer loop
      vertex 35.5 93 10
      vertex 33.8 94 10
      vertex 35.2969 92.98 10
    endloop
  endfacet
  facet normal -0 -0 1
    outer loop
      vertex 33.8 94 10
      vertex 35.5 93 10
      vertex 33.701 94.4975 10
    endloop
  endfacet
  facet normal 0 0 1
    outer loop
      vertex 35.5 93 10
      vertex 29.5 101 10
      vertex 33.4192 94.9192 10
    endloop
  endfacet
  facet normal 0 0 1
    outer loop
      vertex 33.4192 94.9192 10
      vertex 29.5 101 10
      vertex 32.9975 95.201 10
    endloop
  endfacet
  facet normal -0 0 1
    outer loop
      vertex 27.2777 100.326 10
      vertex 31.5808 94.9192 10
      vertex 27.9693 100.696 10
    endloop
  endfacet
  facet normal -0 0 1
    outer loop
      vertex 27.9693 100.696 10
      vertex 31.5808 94.9192 10
      vertex 28.7196 100.923 10
    endloop
  endfacet
  facet normal -0 0 1
    outer loop
      vertex 28.7196 100.923 10
      vertex 31.5808 94.9192 10
      vertex 29.5 101 10
    endloop
  endfacet
  facet normal 0 0 1
    outer loop
      vertex 32.0025 95.201 10
      vertex 29.5 101 10
      vertex 31.5808 94.9192 10
    endloop
  endfacet
  facet normal 0 0 1
    outer loop
      vertex 32.5 95.3 10
      vertex 29.5 101 10
      vertex 32.0025 95.201 10
    endloop
  endfacet
  facet normal 0 0 1
    outer loop
      vertex 32.9975 95.201 10
      vertex 29.5 101 10
      vertex 32.5 95.3 10
    endloop
  endfacet
  facet normal 0 0 1
    outer loop
      vertex 79.7223 9.67412 10
      vertex 75.4192 15.0808 10
      vertex 79.0307 9.30447 10
    endloop
  endfacet
  facet normal 0 0 1
    outer loop
      vertex 79.0307 9.30447 10
      vertex 75.4192 15.0808 10
      vertex 78.2803 9.07686 10
    endloop
  endfacet
  facet normal 0 0 1
    outer loop
      vertex 78.2803 9.07686 10
      vertex 75.4192 15.0808 10
      vertex 77.5 9 10
    endloop
  endfacet
  facet normal -0 0 1
    outer loop
      vertex 74.9975 14.799 10
      vertex 77.5 9 10
      vertex 75.4192 15.0808 10
    endloop
  endfacet
  facet normal -0 0 1
    outer loop
      vertex 74.5 14.7 10
      vertex 77.5 9 10
      vertex 74.9975 14.799 10
    endloop
  endfacet
  facet normal 0 0 1
    outer loop
      vertex 74.0025 14.799 10
      vertex 77.5 9 10
      vertex 74.5 14.7 10
    endloop
  endfacet
  facet normal 0 0 1
    outer loop
      vertex 73.5808 15.0808 10
      vertex 77.5 9 10
      vertex 74.0025 14.799 10
    endloop
  endfacet
  facet normal 0 0 1
    outer loop
      vertex 71.5 17 10
      vertex 73.5808 15.0808 10
      vertex 73.299 15.5025 10
    endloop
  endfacet
  facet normal 0 0 1
    outer loop
      vertex 73.5808 16.9192 10
      vertex 71.9019 17.5 10
      vertex 73.299 16.4975 10
    endloop
  endfacet
  facet normal -0 0 1
    outer loop
      vertex 71.7031 17.02 10
      vertex 73.299 16.4975 10
      vertex 71.9019 17.5 10
    endloop
  endfacet
  facet normal 0 0 1
    outer loop
      vertex 73.299 16.4975 10
      vertex 71.7031 17.02 10
      vertex 73.2 16 10
    endloop
  endfacet
  facet normal -0 0 1
    outer loop
      vertex 71.5 17 10
      vertex 73.2 16 10
      vertex 71.7031 17.02 10
    endloop
  endfacet
  facet normal 0 0 1
    outer loop
      vertex 73.2 16 10
      vertex 71.5 17 10
      vertex 73.299 15.5025 10
    endloop
  endfacet
  facet normal 0 0 1
    outer loop
      vertex 73.5808 15.0808 10
      vertex 71.5 17 10
      vertex 77.5 9 10
    endloop
  endfacet
  facet normal -0 0 1
    outer loop
      vertex 35.5 17 10
      vertex 77.5 9 10
      vertex 71.5 17 10
    endloop
  endfacet
  facet normal 0 0 1
    outer loop
      vertex 33.8 16 10
      vertex 35.5 17 10
      vertex 35.2969 17.02 10
    endloop
  endfacet
  facet normal 0 0 1
    outer loop
      vertex 33.701 16.4975 10
      vertex 35.0981 17.5 10
      vertex 34.6213 18.1213 10
    endloop
  endfacet
  facet normal 0 0 1
    outer loop
      vertex 33.4192 16.9192 10
      vertex 34.6213 18.1213 10
      vertex 34 18.5981 10
    endloop
  endfacet
  facet normal 0 0 1
    outer loop
      vertex 33.701 16.4975 10
      vertex 35.2969 17.02 10
      vertex 35.0981 17.5 10
    endloop
  endfacet
  facet normal 0 0 1
    outer loop
      vertex 35.5 17 10
      vertex 33.8 16 10
      vertex 33.701 15.5025 10
    endloop
  endfacet
  facet normal 0 0 1
    outer loop
      vertex 35.5 17 10
      vertex 33.701 15.5025 10
      vertex 33.4192 15.0808 10
    endloop
  endfacet
  facet normal 0 0 1
    outer loop
      vertex 29.5 9 10
      vertex 35.5 17 10
      vertex 33.4192 15.0808 10
    endloop
  endfacet
  facet normal 0 0 1
    outer loop
      vertex 29.5 9 10
      vertex 33.4192 15.0808 10
      vertex 32.9975 14.799 10
    endloop
  endfacet
  facet normal 0 0 1
    outer loop
      vertex 29.5 9 10
      vertex 32.9975 14.799 10
      vertex 32.5 14.7 10
    endloop
  endfacet
  facet normal 0 0 1
    outer loop
      vertex 35.5 17 10
      vertex 29.5 9 10
      vertex 77.5 9 10
    endloop
  endfacet
  facet normal 0 0 1
    outer loop
      vertex 32.0025 14.799 10
      vertex 29.5 9 10
      vertex 32.5 14.7 10
    endloop
  endfacet
  facet normal 0 0 1
    outer loop
      vertex 31.5808 15.0808 10
      vertex 29.5 9 10
      vertex 32.0025 14.799 10
    endloop
  endfacet
  facet normal 0 0 1
    outer loop
      vertex 25.5 13 10
      vertex 31.5808 15.0808 10
      vertex 31.299 15.5025 10
    endloop
  endfacet
  facet normal 0 0 1
    outer loop
      vertex 25.5 13 10
      vertex 31.299 15.5025 10
      vertex 31.2 16 10
    endloop
  endfacet
  facet normal 0 0 1
    outer loop
      vertex 31.5808 16.9192 10
      vertex 25.5 13 10
      vertex 31.299 16.4975 10
    endloop
  endfacet
  facet normal -0 0 1
    outer loop
      vertex 26.6716 99.8284 10
      vertex 31.5808 94.9192 10
      vertex 27.2777 100.326 10
    endloop
  endfacet
  facet normal 0 0 1
    outer loop
      vertex 31.299 16.4975 10
      vertex 25.5 13 10
      vertex 31.2 16 10
    endloop
  endfacet
  facet normal -0 0 1
    outer loop
      vertex 26.1741 99.2223 10
      vertex 31.5808 94.9192 10
      vertex 26.6716 99.8284 10
    endloop
  endfacet
  facet normal 0 0 1
    outer loop
      vertex 31.5808 15.0808 10
      vertex 25.5 13 10
      vertex 25.5769 12.2196 10
    endloop
  endfacet
  facet normal -0 0 1
    outer loop
      vertex 25.8045 98.5307 10
      vertex 31.5808 94.9192 10
      vertex 26.1741 99.2223 10
    endloop
  endfacet
  facet normal 0 0 1
    outer loop
      vertex 31.5808 15.0808 10
      vertex 28.7196 9.07686 10
      vertex 29.5 9 10
    endloop
  endfacet
  facet normal -0 0 1
    outer loop
      vertex 25.5769 97.7803 10
      vertex 31.5808 94.9192 10
      vertex 25.8045 98.5307 10
    endloop
  endfacet
  facet normal 0 0 1
    outer loop
      vertex 31.5808 15.0808 10
      vertex 27.9693 9.30447 10
      vertex 28.7196 9.07686 10
    endloop
  endfacet
  facet normal -0 0 1
    outer loop
      vertex 25.5 97 10
      vertex 31.5808 94.9192 10
      vertex 25.5769 97.7803 10
    endloop
  endfacet
  facet normal 0 0 1
    outer loop
      vertex 31.5808 15.0808 10
      vertex 27.2777 9.67412 10
      vertex 27.9693 9.30447 10
    endloop
  endfacet
  facet normal 0 0 1
    outer loop
      vertex 31.5808 94.9192 10
      vertex 25.5 97 10
      vertex 31.299 94.4975 10
    endloop
  endfacet
  facet normal 0 0 1
    outer loop
      vertex 31.5808 15.0808 10
      vertex 26.6716 10.1716 10
      vertex 27.2777 9.67412 10
    endloop
  endfacet
  facet normal 0 0 1
    outer loop
      vertex 31.299 94.4975 10
      vertex 25.5 97 10
      vertex 31.2 94 10
    endloop
  endfacet
  facet normal 0 0 1
    outer loop
      vertex 31.5808 15.0808 10
      vertex 26.1741 10.7777 10
      vertex 26.6716 10.1716 10
    endloop
  endfacet
  facet normal 0 0 1
    outer loop
      vertex 31.5808 15.0808 10
      vertex 25.8045 11.4693 10
      vertex 26.1741 10.7777 10
    endloop
  endfacet
  facet normal 0 0 1
    outer loop
      vertex 31.5808 15.0808 10
      vertex 25.5769 12.2196 10
      vertex 25.8045 11.4693 10
    endloop
  endfacet
  facet normal 0 0 1
    outer loop
      vertex 74.5 17.3 10
      vertex 73.48 18.7969 10
      vertex 74.0025 17.201 10
    endloop
  endfacet
  facet normal -0 0 1
    outer loop
      vertex 73 18.5981 10
      vertex 74.0025 17.201 10
      vertex 73.48 18.7969 10
    endloop
  endfacet
  facet normal 0 0 1
    outer loop
      vertex 74.0025 17.201 10
      vertex 73 18.5981 10
      vertex 73.5808 16.9192 10
    endloop
  endfacet
  facet normal -0 0 1
    outer loop
      vertex 72.3787 18.1213 10
      vertex 73.5808 16.9192 10
      vertex 73 18.5981 10
    endloop
  endfacet
  facet normal -0 0 1
    outer loop
      vertex 71.9019 17.5 10
      vertex 73.5808 16.9192 10
      vertex 72.3787 18.1213 10
    endloop
  endfacet
  facet normal -0.471379 -0.881931 0
    outer loop
      vertex 27.2777 9.67412 0
      vertex 27.9693 9.30447 10
      vertex 27.2777 9.67412 10
    endloop
  endfacet
  facet normal -0.471379 -0.881931 -0
    outer loop
      vertex 27.9693 9.30447 10
      vertex 27.2777 9.67412 0
      vertex 27.9693 9.30447 0
    endloop
  endfacet
  facet normal 0.881957 0.471329 0
    outer loop
      vertex 81.1955 98.5307 10
      vertex 80.8259 99.2223 0
      vertex 80.8259 99.2223 10
    endloop
  endfacet
  facet normal 0.881957 0.471329 0
    outer loop
      vertex 80.8259 99.2223 0
      vertex 81.1955 98.5307 10
      vertex 81.1955 98.5307 0
    endloop
  endfacet
  facet normal 0.471726 0.881745 -0
    outer loop
      vertex 79.7223 100.326 0
      vertex 79.0307 100.696 10
      vertex 79.7223 100.326 10
    endloop
  endfacet
  facet normal 0.471726 0.881745 0
    outer loop
      vertex 79.0307 100.696 10
      vertex 79.7223 100.326 0
      vertex 79.0307 100.696 0
    endloop
  endfacet
  facet normal 0.634535 0.772894 -0
    outer loop
      vertex 80.3284 99.8284 0
      vertex 79.7223 100.326 10
      vertex 80.3284 99.8284 10
    endloop
  endfacet
  facet normal 0.634535 0.772894 0
    outer loop
      vertex 79.7223 100.326 10
      vertex 80.3284 99.8284 0
      vertex 79.7223 100.326 0
    endloop
  endfacet
  facet normal 0.098203 0.995166 -0
    outer loop
      vertex 78.2803 100.923 0
      vertex 77.5 101 10
      vertex 78.2803 100.923 10
    endloop
  endfacet
  facet normal 0.098203 0.995166 0
    outer loop
      vertex 77.5 101 10
      vertex 78.2803 100.923 0
      vertex 77.5 101 0
    endloop
  endfacet
  facet normal 0 0 -1
    outer loop
      vertex 35.2969 92.98 0
      vertex 33.701 93.5025 0
      vertex 33.8 94 0
    endloop
  endfacet
  facet normal 0 0 -1
    outer loop
      vertex 32.9975 92.799 0
      vertex 34 91.4019 0
      vertex 33.52 91.2031 0
    endloop
  endfacet
  facet normal 0 0 -1
    outer loop
      vertex 32.5 92.7 0
      vertex 33.52 91.2031 0
      vertex 33.5 91 0
    endloop
  endfacet
  facet normal 0 0 -1
    outer loop
      vertex 34.6213 91.8787 0
      vertex 33.4192 93.0808 0
      vertex 33.701 93.5025 0
    endloop
  endfacet
  facet normal -0 0 -1
    outer loop
      vertex 33.52 18.7969 0
      vertex 32.5 17.3 0
      vertex 33.5 19 0
    endloop
  endfacet
  facet normal 0 0 -1
    outer loop
      vertex 32.0025 17.201 0
      vertex 33.5 19 0
      vertex 32.5 17.3 0
    endloop
  endfacet
  facet normal 0 0 -1
    outer loop
      vertex 34 91.4019 0
      vertex 32.9975 92.799 0
      vertex 33.4192 93.0808 0
    endloop
  endfacet
  facet normal 0 0 -1
    outer loop
      vertex 31.5808 16.9192 0
      vertex 33.5 19 0
      vertex 32.0025 17.201 0
    endloop
  endfacet
  facet normal 0 0 -1
    outer loop
      vertex 33.52 91.2031 0
      vertex 32.5 92.7 0
      vertex 32.9975 92.799 0
    endloop
  endfacet
  facet normal 0 0 -1
    outer loop
      vertex 25.5 13 0
      vertex 33.5 19 0
      vertex 31.5808 16.9192 0
    endloop
  endfacet
  facet normal 0 0 -1
    outer loop
      vertex 33.5 91 0
      vertex 32.0025 92.799 0
      vertex 32.5 92.7 0
    endloop
  endfacet
  facet normal -0 0 -1
    outer loop
      vertex 33.5 19 0
      vertex 25.5 13 0
      vertex 33.5 91 0
    endloop
  endfacet
  facet normal 0 0 -1
    outer loop
      vertex 33.5 91 0
      vertex 31.5808 93.0808 0
      vertex 32.0025 92.799 0
    endloop
  endfacet
  facet normal 0 0 -1
    outer loop
      vertex 25.5 13 0
      vertex 31.5808 16.9192 0
      vertex 31.299 16.4975 0
    endloop
  endfacet
  facet normal 0 0 -1
    outer loop
      vertex 25.5 97 0
      vertex 33.5 91 0
      vertex 25.5 13 0
    endloop
  endfacet
  facet normal 0 0 -1
    outer loop
      vertex 25.5 13 0
      vertex 31.299 16.4975 0
      vertex 31.2 16 0
    endloop
  endfacet
  facet normal 0 0 -1
    outer loop
      vertex 33.5 91 0
      vertex 25.5 97 0
      vertex 31.5808 93.0808 0
    endloop
  endfacet
  facet normal -0 0 -1
    outer loop
      vertex 35.0981 17.5 0
      vertex 33.4192 16.9192 0
      vertex 34.6213 18.1213 0
    endloop
  endfacet
  facet normal -0 0 -1
    outer loop
      vertex 34.6213 18.1213 0
      vertex 33.4192 16.9192 0
      vertex 34 18.5981 0
    endloop
  endfacet
  facet normal 0 0 -1
    outer loop
      vertex 32.9975 17.201 0
      vertex 34 18.5981 0
      vertex 33.4192 16.9192 0
    endloop
  endfacet
  facet normal 0 0 -1
    outer loop
      vertex 32.5 17.3 0
      vertex 33.52 18.7969 0
      vertex 32.9975 17.201 0
    endloop
  endfacet
  facet normal -0 0 -1
    outer loop
      vertex 34 18.5981 0
      vertex 32.9975 17.201 0
      vertex 33.52 18.7969 0
    endloop
  endfacet
  facet normal 0 0 -1
    outer loop
      vertex 73.5 19 0
      vertex 81.5 13 0
      vertex 75.4192 16.9192 0
    endloop
  endfacet
  facet normal 0 0 -1
    outer loop
      vertex 81.5 97 0
      vertex 75.701 93.5025 0
      vertex 75.8 94 0
    endloop
  endfacet
  facet normal 0 0 -1
    outer loop
      vertex 81.5 13 0
      vertex 73.5 19 0
      vertex 81.5 97 0
    endloop
  endfacet
  facet normal 0 0 -1
    outer loop
      vertex 81.5 97 0
      vertex 75.4192 93.0808 0
      vertex 75.701 93.5025 0
    endloop
  endfacet
  facet normal 0 0 -1
    outer loop
      vertex 73.5 19 0
      vertex 75.4192 16.9192 0
      vertex 74.9975 17.201 0
    endloop
  endfacet
  facet normal 0 0 -1
    outer loop
      vertex 73.5 91 0
      vertex 81.5 97 0
      vertex 73.5 19 0
    endloop
  endfacet
  facet normal 0 0 -1
    outer loop
      vertex 73.5 19 0
      vertex 74.9975 17.201 0
      vertex 74.5 17.3 0
    endloop
  endfacet
  facet normal 0 0 -1
    outer loop
      vertex 81.5 97 0
      vertex 73.5 91 0
      vertex 75.4192 93.0808 0
    endloop
  endfacet
  facet normal 0 0 -1
    outer loop
      vertex 73.48 18.7969 0
      vertex 74.5 17.3 0
      vertex 74.0025 17.201 0
    endloop
  endfacet
  facet normal 0 0 -1
    outer loop
      vertex 75.4192 93.0808 0
      vertex 73.5 91 0
      vertex 74.9975 92.799 0
    endloop
  endfacet
  facet normal 0 0 -1
    outer loop
      vertex 73 18.5981 0
      vertex 74.0025 17.201 0
      vertex 73.5808 16.9192 0
    endloop
  endfacet
  facet normal 0 0 -1
    outer loop
      vertex 74.9975 92.799 0
      vertex 73.5 91 0
      vertex 74.5 92.7 0
    endloop
  endfacet
  facet normal 0 0 -1
    outer loop
      vertex 73.48 91.2031 0
      vertex 74.5 92.7 0
      vertex 73.5 91 0
    endloop
  endfacet
  facet normal 0 0 -1
    outer loop
      vertex 74.5 17.3 0
      vertex 73.48 18.7969 0
      vertex 73.5 19 0
    endloop
  endfacet
  facet normal 0 0 -1
    outer loop
      vertex 71.9019 17.5 0
      vertex 73.5808 16.9192 0
      vertex 73.299 16.4975 0
    endloop
  endfacet
  facet normal 0 0 -1
    outer loop
      vertex 71.7031 17.02 0
      vertex 73.299 16.4975 0
      vertex 73.2 16 0
    endloop
  endfacet
  facet normal 0 0 -1
    outer loop
      vertex 74.0025 17.201 0
      vertex 73 18.5981 0
      vertex 73.48 18.7969 0
    endloop
  endfacet
  facet normal 0 0 -1
    outer loop
      vertex 75.4192 15.0808 0
      vertex 81.5 13 0
      vertex 81.4231 12.2196 0
    endloop
  endfacet
  facet normal 0 0 -1
    outer loop
      vertex 75.701 16.4975 0
      vertex 81.5 13 0
      vertex 75.8 16 0
    endloop
  endfacet
  facet normal 0 0 -1
    outer loop
      vertex 75.4192 15.0808 0
      vertex 81.4231 12.2196 0
      vertex 81.1955 11.4693 0
    endloop
  endfacet
  facet normal 0 0 -1
    outer loop
      vertex 75.4192 16.9192 0
      vertex 81.5 13 0
      vertex 75.701 16.4975 0
    endloop
  endfacet
  facet normal 0 0 -1
    outer loop
      vertex 75.4192 15.0808 0
      vertex 81.1955 11.4693 0
      vertex 80.8259 10.7777 0
    endloop
  endfacet
  facet normal 0 0 -1
    outer loop
      vertex 75.701 94.4975 0
      vertex 81.5 97 0
      vertex 75.8 94 0
    endloop
  endfacet
  facet normal 0 0 -1
    outer loop
      vertex 75.4192 15.0808 0
      vertex 80.8259 10.7777 0
      vertex 80.3284 10.1716 0
    endloop
  endfacet
  facet normal 0 0 -1
    outer loop
      vertex 75.4192 94.9192 0
      vertex 81.5 97 0
      vertex 75.701 94.4975 0
    endloop
  endfacet
  facet normal 0 0 -1
    outer loop
      vertex 75.4192 15.0808 0
      vertex 80.3284 10.1716 0
      vertex 79.7223 9.67412 0
    endloop
  endfacet
  facet normal -0 0 -1
    outer loop
      vertex 81.5 97 0
      vertex 75.4192 94.9192 0
      vertex 81.4231 97.7803 0
    endloop
  endfacet
  facet normal 0 0 -1
    outer loop
      vertex 75.4192 15.0808 0
      vertex 79.7223 9.67412 0
      vertex 79.0307 9.30447 0
    endloop
  endfacet
  facet normal -0 0 -1
    outer loop
      vertex 81.4231 97.7803 0
      vertex 75.4192 94.9192 0
      vertex 81.1955 98.5307 0
    endloop
  endfacet
  facet normal 0 0 -1
    outer loop
      vertex 75.4192 15.0808 0
      vertex 79.0307 9.30447 0
      vertex 78.2803 9.07686 0
    endloop
  endfacet
  facet normal -0 0 -1
    outer loop
      vertex 81.1955 98.5307 0
      vertex 75.4192 94.9192 0
      vertex 80.8259 99.2223 0
    endloop
  endfacet
  facet normal 0 0 -1
    outer loop
      vertex 75.4192 15.0808 0
      vertex 78.2803 9.07686 0
      vertex 77.5 9 0
    endloop
  endfacet
  facet normal -0 0 -1
    outer loop
      vertex 80.8259 99.2223 0
      vertex 75.4192 94.9192 0
      vertex 80.3284 99.8284 0
    endloop
  endfacet
  facet normal -0 0 -1
    outer loop
      vertex 80.3284 99.8284 0
      vertex 75.4192 94.9192 0
      vertex 79.7223 100.326 0
    endloop
  endfacet
  facet normal 0 0 -1
    outer loop
      vertex 81.5 13 0
      vertex 75.701 15.5025 0
      vertex 75.8 16 0
    endloop
  endfacet
  facet normal 0 0 -1
    outer loop
      vertex 81.5 13 0
      vertex 75.4192 15.0808 0
      vertex 75.701 15.5025 0
    endloop
  endfacet
  facet normal 0 0 -1
    outer loop
      vertex 77.5 9 0
      vertex 74.9975 14.799 0
      vertex 75.4192 15.0808 0
    endloop
  endfacet
  facet normal 0 0 -1
    outer loop
      vertex 77.5 9 0
      vertex 74.5 14.7 0
      vertex 74.9975 14.799 0
    endloop
  endfacet
  facet normal 0 0 -1
    outer loop
      vertex 77.5 9 0
      vertex 74.0025 14.799 0
      vertex 74.5 14.7 0
    endloop
  endfacet
  facet normal 0 0 -1
    outer loop
      vertex 77.5 9 0
      vertex 73.5808 15.0808 0
      vertex 74.0025 14.799 0
    endloop
  endfacet
  facet normal 0 0 -1
    outer loop
      vertex 71.5 17 0
      vertex 73.5808 15.0808 0
      vertex 77.5 9 0
    endloop
  endfacet
  facet normal 0 0 -1
    outer loop
      vertex 73.5808 16.9192 0
      vertex 72.3787 18.1213 0
      vertex 73 18.5981 0
    endloop
  endfacet
  facet normal 0 0 -1
    outer loop
      vertex 71.5 17 0
      vertex 73.2 16 0
      vertex 73.299 15.5025 0
    endloop
  endfacet
  facet normal 0 0 -1
    outer loop
      vertex 73.5808 16.9192 0
      vertex 71.9019 17.5 0
      vertex 72.3787 18.1213 0
    endloop
  endfacet
  facet normal 0 0 -1
    outer loop
      vertex 73.5808 15.0808 0
      vertex 71.5 17 0
      vertex 73.299 15.5025 0
    endloop
  endfacet
  facet normal 0 0 -1
    outer loop
      vertex 73.299 16.4975 0
      vertex 71.7031 17.02 0
      vertex 71.9019 17.5 0
    endloop
  endfacet
  facet normal 0 0 -1
    outer loop
      vertex 73.2 16 0
      vertex 71.5 17 0
      vertex 71.7031 17.02 0
    endloop
  endfacet
  facet normal 0 0 -1
    outer loop
      vertex 77.5 9 0
      vertex 35.5 17 0
      vertex 71.5 17 0
    endloop
  endfacet
  facet normal 0 0 -1
    outer loop
      vertex 29.5 9 0
      vertex 35.5 17 0
      vertex 77.5 9 0
    endloop
  endfacet
  facet normal 0 0 -1
    outer loop
      vertex 33.701 16.4975 0
      vertex 35.2969 17.02 0
      vertex 33.8 16 0
    endloop
  endfacet
  facet normal -0 0 -1
    outer loop
      vertex 35.2969 17.02 0
      vertex 33.701 16.4975 0
      vertex 35.0981 17.5 0
    endloop
  endfacet
  facet normal 0 0 -1
    outer loop
      vertex 33.4192 16.9192 0
      vertex 35.0981 17.5 0
      vertex 33.701 16.4975 0
    endloop
  endfacet
  facet normal 0 -0 -1
    outer loop
      vertex 33.701 15.5025 0
      vertex 35.5 17 0
      vertex 33.4192 15.0808 0
    endloop
  endfacet
  facet normal -0 0 -1
    outer loop
      vertex 35.5 17 0
      vertex 33.8 16 0
      vertex 35.2969 17.02 0
    endloop
  endfacet
  facet normal 0 -0 -1
    outer loop
      vertex 33.8 16 0
      vertex 35.5 17 0
      vertex 33.701 15.5025 0
    endloop
  endfacet
  facet normal 0 0 -1
    outer loop
      vertex 35.5 17 0
      vertex 29.5 9 0
      vertex 33.4192 15.0808 0
    endloop
  endfacet
  facet normal 0 0 -1
    outer loop
      vertex 33.4192 15.0808 0
      vertex 29.5 9 0
      vertex 32.9975 14.799 0
    endloop
  endfacet
  facet normal 0 0 -1
    outer loop
      vertex 27.2777 9.67412 0
      vertex 31.5808 15.0808 0
      vertex 27.9693 9.30447 0
    endloop
  endfacet
  facet normal 0 0 -1
    outer loop
      vertex 27.9693 9.30447 0
      vertex 31.5808 15.0808 0
      vertex 28.7196 9.07686 0
    endloop
  endfacet
  facet normal 0 0 -1
    outer loop
      vertex 28.7196 9.07686 0
      vertex 31.5808 15.0808 0
      vertex 29.5 9 0
    endloop
  endfacet
  facet normal -0 0 -1
    outer loop
      vertex 32.0025 14.799 0
      vertex 29.5 9 0
      vertex 31.5808 15.0808 0
    endloop
  endfacet
  facet normal -0 0 -1
    outer loop
      vertex 32.5 14.7 0
      vertex 29.5 9 0
      vertex 32.0025 14.799 0
    endloop
  endfacet
  facet normal 0 0 -1
    outer loop
      vertex 32.9975 14.799 0
      vertex 29.5 9 0
      vertex 32.5 14.7 0
    endloop
  endfacet
  facet normal -0 0 -1
    outer loop
      vertex 79.7223 100.326 0
      vertex 75.4192 94.9192 0
      vertex 79.0307 100.696 0
    endloop
  endfacet
  facet normal -0 0 -1
    outer loop
      vertex 79.0307 100.696 0
      vertex 75.4192 94.9192 0
      vertex 78.2803 100.923 0
    endloop
  endfacet
  facet normal -0 0 -1
    outer loop
      vertex 78.2803 100.923 0
      vertex 75.4192 94.9192 0
      vertex 77.5 101 0
    endloop
  endfacet
  facet normal 0 0 -1
    outer loop
      vertex 74.9975 95.201 0
      vertex 77.5 101 0
      vertex 75.4192 94.9192 0
    endloop
  endfacet
  facet normal 0 0 -1
    outer loop
      vertex 74.5 95.3 0
      vertex 77.5 101 0
      vertex 74.9975 95.201 0
    endloop
  endfacet
  facet normal 0 0 -1
    outer loop
      vertex 74.0025 95.201 0
      vertex 77.5 101 0
      vertex 74.5 95.3 0
    endloop
  endfacet
  facet normal 0 0 -1
    outer loop
      vertex 73.5808 94.9192 0
      vertex 77.5 101 0
      vertex 74.0025 95.201 0
    endloop
  endfacet
  facet normal 0 0 -1
    outer loop
      vertex 71.5 93 0
      vertex 73.5808 94.9192 0
      vertex 73.299 94.4975 0
    endloop
  endfacet
  facet normal -0 0 -1
    outer loop
      vertex 73.5808 93.0808 0
      vertex 71.9019 92.5 0
      vertex 73.299 93.5025 0
    endloop
  endfacet
  facet normal 0 0 -1
    outer loop
      vertex 71.7031 92.98 0
      vertex 73.299 93.5025 0
      vertex 71.9019 92.5 0
    endloop
  endfacet
  facet normal -0 0 -1
    outer loop
      vertex 73.299 93.5025 0
      vertex 71.7031 92.98 0
      vertex 73.2 94 0
    endloop
  endfacet
  facet normal 0 0 -1
    outer loop
      vertex 71.5 93 0
      vertex 73.2 94 0
      vertex 71.7031 92.98 0
    endloop
  endfacet
  facet normal -0 0 -1
    outer loop
      vertex 73.2 94 0
      vertex 71.5 93 0
      vertex 73.299 94.4975 0
    endloop
  endfacet
  facet normal -0 0 -1
    outer loop
      vertex 73.5808 94.9192 0
      vertex 71.5 93 0
      vertex 77.5 101 0
    endloop
  endfacet
  facet normal 0 0 -1
    outer loop
      vertex 35.5 93 0
      vertex 77.5 101 0
      vertex 71.5 93 0
    endloop
  endfacet
  facet normal 0 0 -1
    outer loop
      vertex 33.8 94 0
      vertex 35.5 93 0
      vertex 35.2969 92.98 0
    endloop
  endfacet
  facet normal 0 0 -1
    outer loop
      vertex 33.701 93.5025 0
      vertex 35.0981 92.5 0
      vertex 34.6213 91.8787 0
    endloop
  endfacet
  facet normal 0 0 -1
    outer loop
      vertex 33.4192 93.0808 0
      vertex 34.6213 91.8787 0
      vertex 34 91.4019 0
    endloop
  endfacet
  facet normal 0 0 -1
    outer loop
      vertex 33.701 93.5025 0
      vertex 35.2969 92.98 0
      vertex 35.0981 92.5 0
    endloop
  endfacet
  facet normal 0 0 -1
    outer loop
      vertex 35.5 93 0
      vertex 33.8 94 0
      vertex 33.701 94.4975 0
    endloop
  endfacet
  facet normal 0 0 -1
    outer loop
      vertex 35.5 93 0
      vertex 33.701 94.4975 0
      vertex 33.4192 94.9192 0
    endloop
  endfacet
  facet normal 0 0 -1
    outer loop
      vertex 29.5 101 0
      vertex 35.5 93 0
      vertex 33.4192 94.9192 0
    endloop
  endfacet
  facet normal 0 0 -1
    outer loop
      vertex 29.5 101 0
      vertex 33.4192 94.9192 0
      vertex 32.9975 95.201 0
    endloop
  endfacet
  facet normal 0 0 -1
    outer loop
      vertex 29.5 101 0
      vertex 32.9975 95.201 0
      vertex 32.5 95.3 0
    endloop
  endfacet
  facet normal 0 0 -1
    outer loop
      vertex 35.5 93 0
      vertex 29.5 101 0
      vertex 77.5 101 0
    endloop
  endfacet
  facet normal 0 0 -1
    outer loop
      vertex 32.0025 95.201 0
      vertex 29.5 101 0
      vertex 32.5 95.3 0
    endloop
  endfacet
  facet normal 0 0 -1
    outer loop
      vertex 31.5808 94.9192 0
      vertex 29.5 101 0
      vertex 32.0025 95.201 0
    endloop
  endfacet
  facet normal 0 0 -1
    outer loop
      vertex 25.5 97 0
      vertex 31.5808 94.9192 0
      vertex 31.299 94.4975 0
    endloop
  endfacet
  facet normal 0 0 -1
    outer loop
      vertex 25.5 97 0
      vertex 31.299 94.4975 0
      vertex 31.2 94 0
    endloop
  endfacet
  facet normal 0 0 -1
    outer loop
      vertex 31.5808 93.0808 0
      vertex 25.5 97 0
      vertex 31.299 93.5025 0
    endloop
  endfacet
  facet normal 0 0 -1
    outer loop
      vertex 26.6716 10.1716 0
      vertex 31.5808 15.0808 0
      vertex 27.2777 9.67412 0
    endloop
  endfacet
  facet normal 0 0 -1
    outer loop
      vertex 31.299 93.5025 0
      vertex 25.5 97 0
      vertex 31.2 94 0
    endloop
  endfacet
  facet normal 0 0 -1
    outer loop
      vertex 26.1741 10.7777 0
      vertex 31.5808 15.0808 0
      vertex 26.6716 10.1716 0
    endloop
  endfacet
  facet normal 0 0 -1
    outer loop
      vertex 31.5808 94.9192 0
      vertex 25.5 97 0
      vertex 25.5769 97.7803 0
    endloop
  endfacet
  facet normal 0 0 -1
    outer loop
      vertex 25.8045 11.4693 0
      vertex 31.5808 15.0808 0
      vertex 26.1741 10.7777 0
    endloop
  endfacet
  facet normal 0 0 -1
    outer loop
      vertex 31.5808 94.9192 0
      vertex 28.7196 100.923 0
      vertex 29.5 101 0
    endloop
  endfacet
  facet normal 0 0 -1
    outer loop
      vertex 25.5769 12.2196 0
      vertex 31.5808 15.0808 0
      vertex 25.8045 11.4693 0
    endloop
  endfacet
  facet normal 0 0 -1
    outer loop
      vertex 31.5808 94.9192 0
      vertex 27.9693 100.696 0
      vertex 28.7196 100.923 0
    endloop
  endfacet
  facet normal 0 0 -1
    outer loop
      vertex 25.5 13 0
      vertex 31.5808 15.0808 0
      vertex 25.5769 12.2196 0
    endloop
  endfacet
  facet normal 0 0 -1
    outer loop
      vertex 31.5808 94.9192 0
      vertex 27.2777 100.326 0
      vertex 27.9693 100.696 0
    endloop
  endfacet
  facet normal -0 0 -1
    outer loop
      vertex 31.5808 15.0808 0
      vertex 25.5 13 0
      vertex 31.299 15.5025 0
    endloop
  endfacet
  facet normal 0 0 -1
    outer loop
      vertex 31.5808 94.9192 0
      vertex 26.6716 99.8284 0
      vertex 27.2777 100.326 0
    endloop
  endfacet
  facet normal -0 0 -1
    outer loop
      vertex 31.299 15.5025 0
      vertex 25.5 13 0
      vertex 31.2 16 0
    endloop
  endfacet
  facet normal 0 0 -1
    outer loop
      vertex 31.5808 94.9192 0
      vertex 26.1741 99.2223 0
      vertex 26.6716 99.8284 0
    endloop
  endfacet
  facet normal 0 0 -1
    outer loop
      vertex 31.5808 94.9192 0
      vertex 25.8045 98.5307 0
      vertex 26.1741 99.2223 0
    endloop
  endfacet
  facet normal 0 0 -1
    outer loop
      vertex 31.5808 94.9192 0
      vertex 25.5769 97.7803 0
      vertex 25.8045 98.5307 0
    endloop
  endfacet
  facet normal -0 0 -1
    outer loop
      vertex 74.5 92.7 0
      vertex 73.48 91.2031 0
      vertex 74.0025 92.799 0
    endloop
  endfacet
  facet normal 0 0 -1
    outer loop
      vertex 73 91.4019 0
      vertex 74.0025 92.799 0
      vertex 73.48 91.2031 0
    endloop
  endfacet
  facet normal -0 0 -1
    outer loop
      vertex 74.0025 92.799 0
      vertex 73 91.4019 0
      vertex 73.5808 93.0808 0
    endloop
  endfacet
  facet normal 0 0 -1
    outer loop
      vertex 72.3787 91.8787 0
      vertex 73.5808 93.0808 0
      vertex 73 91.4019 0
    endloop
  endfacet
  facet normal 0 0 -1
    outer loop
      vertex 71.9019 92.5 0
      vertex 73.5808 93.0808 0
      vertex 72.3787 91.8787 0
    endloop
  endfacet
  facet normal 0.995186 0.0979997 0
    outer loop
      vertex 33.52 18.7969 10
      vertex 33.5 19 0
      vertex 33.5 19 10
    endloop
  endfacet
  facet normal 0.995186 0.0979997 0
    outer loop
      vertex 33.5 19 0
      vertex 33.52 18.7969 10
      vertex 33.52 18.7969 0
    endloop
  endfacet
  facet normal 0.995186 -0.0979997 0
    outer loop
      vertex 33.5 91 10
      vertex 33.52 91.2031 0
      vertex 33.52 91.2031 10
    endloop
  endfacet
  facet normal 0.995186 -0.0979997 0
    outer loop
      vertex 33.52 91.2031 0
      vertex 33.5 91 10
      vertex 33.5 91 0
    endloop
  endfacet
  facet normal 0 -1 0
    outer loop
      vertex 35.5 93 0
      vertex 71.5 93 10
      vertex 35.5 93 10
    endloop
  endfacet
  facet normal 0 -1 -0
    outer loop
      vertex 71.5 93 10
      vertex 35.5 93 0
      vertex 71.5 93 0
    endloop
  endfacet
  facet normal 1 -0 0
    outer loop
      vertex 33.5 19 10
      vertex 33.5 91 0
      vertex 33.5 91 10
    endloop
  endfacet
  facet normal 1 0 0
    outer loop
      vertex 33.5 91 0
      vertex 33.5 19 10
      vertex 33.5 19 0
    endloop
  endfacet
  facet normal 0 1 -0
    outer loop
      vertex 71.5 17 0
      vertex 35.5 17 10
      vertex 71.5 17 10
    endloop
  endfacet
  facet normal 0 1 0
    outer loop
      vertex 35.5 17 10
      vertex 71.5 17 0
      vertex 35.5 17 0
    endloop
  endfacet
  facet normal 0.0979997 -0.995186 0
    outer loop
      vertex 35.2969 92.98 0
      vertex 35.5 93 10
      vertex 35.2969 92.98 10
    endloop
  endfacet
  facet normal 0.0979997 -0.995186 0
    outer loop
      vertex 35.5 93 10
      vertex 35.2969 92.98 0
      vertex 35.5 93 0
    endloop
  endfacet
  facet normal -1 0 0
    outer loop
      vertex 73.5 19 0
      vertex 73.5 91 10
      vertex 73.5 91 0
    endloop
  endfacet
  facet normal -1 -0 0
    outer loop
      vertex 73.5 91 10
      vertex 73.5 19 0
      vertex 73.5 19 10
    endloop
  endfacet
  facet normal -0.0979997 0.995186 0
    outer loop
      vertex 71.7031 17.02 0
      vertex 71.5 17 10
      vertex 71.7031 17.02 10
    endloop
  endfacet
  facet normal -0.0979997 0.995186 0
    outer loop
      vertex 71.5 17 10
      vertex 71.7031 17.02 0
      vertex 71.5 17 0
    endloop
  endfacet
  facet normal -0.995186 -0.0979997 0
    outer loop
      vertex 73.5 91 0
      vertex 73.48 91.2031 10
      vertex 73.48 91.2031 0
    endloop
  endfacet
  facet normal -0.995186 -0.0979997 0
    outer loop
      vertex 73.48 91.2031 10
      vertex 73.5 91 0
      vertex 73.5 91 10
    endloop
  endfacet
  facet normal 0.0979997 0.995186 -0
    outer loop
      vertex 35.5 17 0
      vertex 35.2969 17.02 10
      vertex 35.5 17 10
    endloop
  endfacet
  facet normal 0.0979997 0.995186 0
    outer loop
      vertex 35.2969 17.02 10
      vertex 35.5 17 0
      vertex 35.2969 17.02 0
    endloop
  endfacet
  facet normal -0.995186 0.0979997 0
    outer loop
      vertex 73.48 18.7969 0
      vertex 73.5 19 10
      vertex 73.5 19 0
    endloop
  endfacet
  facet normal -0.995186 0.0979997 0
    outer loop
      vertex 73.5 19 10
      vertex 73.48 18.7969 0
      vertex 73.48 18.7969 10
    endloop
  endfacet
  facet normal -0.0979997 -0.995186 0
    outer loop
      vertex 71.5 93 0
      vertex 71.7031 92.98 10
      vertex 71.5 93 10
    endloop
  endfacet
  facet normal -0.0979997 -0.995186 -0
    outer loop
      vertex 71.7031 92.98 10
      vertex 71.5 93 0
      vertex 71.7031 92.98 0
    endloop
  endfacet
  facet normal 0.923895 0.382646 0
    outer loop
      vertex 35.2969 17.02 10
      vertex 35.0981 17.5 0
      vertex 35.0981 17.5 10
    endloop
  endfacet
  facet normal 0.923895 0.382646 0
    outer loop
      vertex 35.0981 17.5 0
      vertex 35.2969 17.02 10
      vertex 35.2969 17.02 0
    endloop
  endfacet
  facet normal 0.793316 0.608809 0
    outer loop
      vertex 35.0981 17.5 10
      vertex 34.6213 18.1213 0
      vertex 34.6213 18.1213 10
    endloop
  endfacet
  facet normal 0.793316 0.608809 0
    outer loop
      vertex 34.6213 18.1213 0
      vertex 35.0981 17.5 10
      vertex 35.0981 17.5 0
    endloop
  endfacet
  facet normal 0.382646 0.923895 -0
    outer loop
      vertex 34 18.5981 0
      vertex 33.52 18.7969 10
      vertex 34 18.5981 10
    endloop
  endfacet
  facet normal 0.382646 0.923895 0
    outer loop
      vertex 33.52 18.7969 10
      vertex 34 18.5981 0
      vertex 33.52 18.7969 0
    endloop
  endfacet
  facet normal 0.608809 0.793316 -0
    outer loop
      vertex 34.6213 18.1213 0
      vertex 34 18.5981 10
      vertex 34.6213 18.1213 10
    endloop
  endfacet
  facet normal 0.608809 0.793316 0
    outer loop
      vertex 34 18.5981 10
      vertex 34.6213 18.1213 0
      vertex 34 18.5981 0
    endloop
  endfacet
  facet normal -0.793316 0.608809 0
    outer loop
      vertex 71.9019 17.5 0
      vertex 72.3787 18.1213 10
      vertex 72.3787 18.1213 0
    endloop
  endfacet
  facet normal -0.793316 0.608809 0
    outer loop
      vertex 72.3787 18.1213 10
      vertex 71.9019 17.5 0
      vertex 71.9019 17.5 10
    endloop
  endfacet
  facet normal -0.608809 0.793316 0
    outer loop
      vertex 73 18.5981 0
      vertex 72.3787 18.1213 10
      vertex 73 18.5981 10
    endloop
  endfacet
  facet normal -0.608809 0.793316 0
    outer loop
      vertex 72.3787 18.1213 10
      vertex 73 18.5981 0
      vertex 72.3787 18.1213 0
    endloop
  endfacet
  facet normal -0.382646 0.923895 0
    outer loop
      vertex 73.48 18.7969 0
      vertex 73 18.5981 10
      vertex 73.48 18.7969 10
    endloop
  endfacet
  facet normal -0.382646 0.923895 0
    outer loop
      vertex 73 18.5981 10
      vertex 73.48 18.7969 0
      vertex 73 18.5981 0
    endloop
  endfacet
  facet normal -0.923895 0.382646 0
    outer loop
      vertex 71.7031 17.02 0
      vertex 71.9019 17.5 10
      vertex 71.9019 17.5 0
    endloop
  endfacet
  facet normal -0.923895 0.382646 0
    outer loop
      vertex 71.9019 17.5 10
      vertex 71.7031 17.02 0
      vertex 71.7031 17.02 10
    endloop
  endfacet
  facet normal 0.923895 -0.382646 0
    outer loop
      vertex 35.0981 92.5 10
      vertex 35.2969 92.98 0
      vertex 35.2969 92.98 10
    endloop
  endfacet
  facet normal 0.923895 -0.382646 0
    outer loop
      vertex 35.2969 92.98 0
      vertex 35.0981 92.5 10
      vertex 35.0981 92.5 0
    endloop
  endfacet
  facet normal 0.608809 -0.793316 0
    outer loop
      vertex 34 91.4019 0
      vertex 34.6213 91.8787 10
      vertex 34 91.4019 10
    endloop
  endfacet
  facet normal 0.608809 -0.793316 0
    outer loop
      vertex 34.6213 91.8787 10
      vertex 34 91.4019 0
      vertex 34.6213 91.8787 0
    endloop
  endfacet
  facet normal 0.382646 -0.923895 0
    outer loop
      vertex 33.52 91.2031 0
      vertex 34 91.4019 10
      vertex 33.52 91.2031 10
    endloop
  endfacet
  facet normal 0.382646 -0.923895 0
    outer loop
      vertex 34 91.4019 10
      vertex 33.52 91.2031 0
      vertex 34 91.4019 0
    endloop
  endfacet
  facet normal 0.793316 -0.608809 0
    outer loop
      vertex 34.6213 91.8787 10
      vertex 35.0981 92.5 0
      vertex 35.0981 92.5 10
    endloop
  endfacet
  facet normal 0.793316 -0.608809 0
    outer loop
      vertex 35.0981 92.5 0
      vertex 34.6213 91.8787 10
      vertex 34.6213 91.8787 0
    endloop
  endfacet
  facet normal -0.923895 -0.382646 0
    outer loop
      vertex 71.9019 92.5 0
      vertex 71.7031 92.98 10
      vertex 71.7031 92.98 0
    endloop
  endfacet
  facet normal -0.923895 -0.382646 0
    outer loop
      vertex 71.7031 92.98 10
      vertex 71.9019 92.5 0
      vertex 71.9019 92.5 10
    endloop
  endfacet
  facet normal -0.608809 -0.793316 0
    outer loop
      vertex 72.3787 91.8787 0
      vertex 73 91.4019 10
      vertex 72.3787 91.8787 10
    endloop
  endfacet
  facet normal -0.608809 -0.793316 -0
    outer loop
      vertex 73 91.4019 10
      vertex 72.3787 91.8787 0
      vertex 73 91.4019 0
    endloop
  endfacet
  facet normal -0.793316 -0.608809 0
    outer loop
      vertex 72.3787 91.8787 0
      vertex 71.9019 92.5 10
      vertex 71.9019 92.5 0
    endloop
  endfacet
  facet normal -0.793316 -0.608809 0
    outer loop
      vertex 71.9019 92.5 10
      vertex 72.3787 91.8787 0
      vertex 72.3787 91.8787 10
    endloop
  endfacet
  facet normal -0.382646 -0.923895 0
    outer loop
      vertex 73 91.4019 0
      vertex 73.48 91.2031 10
      vertex 73 91.4019 10
    endloop
  endfacet
  facet normal -0.382646 -0.923895 -0
    outer loop
      vertex 73.48 91.2031 10
      vertex 73 91.4019 0
      vertex 73.48 91.2031 0
    endloop
  endfacet
  facet normal -0.831443 -0.55561 0
    outer loop
      vertex 33.701 16.4975 0
      vertex 33.4192 16.9192 10
      vertex 33.4192 16.9192 0
    endloop
  endfacet
  facet normal -0.831443 -0.55561 0
    outer loop
      vertex 33.4192 16.9192 10
      vertex 33.701 16.4975 0
      vertex 33.701 16.4975 10
    endloop
  endfacet
  facet normal -0.98077 -0.195168 0
    outer loop
      vertex 33.8 16 0
      vertex 33.701 16.4975 10
      vertex 33.701 16.4975 0
    endloop
  endfacet
  facet normal -0.98077 -0.195168 0
    outer loop
      vertex 33.701 16.4975 10
      vertex 33.8 16 0
      vertex 33.8 16 10
    endloop
  endfacet
  facet normal -0.55561 -0.831443 0
    outer loop
      vertex 32.9975 17.201 0
      vertex 33.4192 16.9192 10
      vertex 32.9975 17.201 10
    endloop
  endfacet
  facet normal -0.55561 -0.831443 -0
    outer loop
      vertex 33.4192 16.9192 10
      vertex 32.9975 17.201 0
      vertex 33.4192 16.9192 0
    endloop
  endfacet
  facet normal 0.98077 0.195168 0
    outer loop
      vertex 31.299 15.5025 10
      vertex 31.2 16 0
      vertex 31.2 16 10
    endloop
  endfacet
  facet normal 0.98077 0.195168 0
    outer loop
      vertex 31.2 16 0
      vertex 31.299 15.5025 10
      vertex 31.299 15.5025 0
    endloop
  endfacet
  facet normal 0.195168 -0.98077 0
    outer loop
      vertex 32.0025 17.201 0
      vertex 32.5 17.3 10
      vertex 32.0025 17.201 10
    endloop
  endfacet
  facet normal 0.195168 -0.98077 0
    outer loop
      vertex 32.5 17.3 10
      vertex 32.0025 17.201 0
      vertex 32.5 17.3 0
    endloop
  endfacet
  facet normal 0.831443 -0.55561 0
    outer loop
      vertex 31.299 16.4975 10
      vertex 31.5808 16.9192 0
      vertex 31.5808 16.9192 10
    endloop
  endfacet
  facet normal 0.831443 -0.55561 0
    outer loop
      vertex 31.5808 16.9192 0
      vertex 31.299 16.4975 10
      vertex 31.299 16.4975 0
    endloop
  endfacet
  facet normal -0.195168 0.98077 0
    outer loop
      vertex 32.9975 14.799 0
      vertex 32.5 14.7 10
      vertex 32.9975 14.799 10
    endloop
  endfacet
  facet normal -0.195168 0.98077 0
    outer loop
      vertex 32.5 14.7 10
      vertex 32.9975 14.799 0
      vertex 32.5 14.7 0
    endloop
  endfacet
  facet normal 0.195168 0.98077 -0
    outer loop
      vertex 32.5 14.7 0
      vertex 32.0025 14.799 10
      vertex 32.5 14.7 10
    endloop
  endfacet
  facet normal 0.195168 0.98077 0
    outer loop
      vertex 32.0025 14.799 10
      vertex 32.5 14.7 0
      vertex 32.0025 14.799 0
    endloop
  endfacet
  facet normal -0.98077 0.195168 0
    outer loop
      vertex 33.701 15.5025 0
      vertex 33.8 16 10
      vertex 33.8 16 0
    endloop
  endfacet
  facet normal -0.98077 0.195168 0
    outer loop
      vertex 33.8 16 10
      vertex 33.701 15.5025 0
      vertex 33.701 15.5025 10
    endloop
  endfacet
  facet normal -0.195168 -0.98077 0
    outer loop
      vertex 32.5 17.3 0
      vertex 32.9975 17.201 10
      vertex 32.5 17.3 10
    endloop
  endfacet
  facet normal -0.195168 -0.98077 -0
    outer loop
      vertex 32.9975 17.201 10
      vertex 32.5 17.3 0
      vertex 32.9975 17.201 0
    endloop
  endfacet
  facet normal -0.55561 0.831443 0
    outer loop
      vertex 33.4192 15.0808 0
      vertex 32.9975 14.799 10
      vertex 33.4192 15.0808 10
    endloop
  endfacet
  facet normal -0.55561 0.831443 0
    outer loop
      vertex 32.9975 14.799 10
      vertex 33.4192 15.0808 0
      vertex 32.9975 14.799 0
    endloop
  endfacet
  facet normal -0.831443 0.55561 0
    outer loop
      vertex 33.4192 15.0808 0
      vertex 33.701 15.5025 10
      vertex 33.701 15.5025 0
    endloop
  endfacet
  facet normal -0.831443 0.55561 0
    outer loop
      vertex 33.701 15.5025 10
      vertex 33.4192 15.0808 0
      vertex 33.4192 15.0808 10
    endloop
  endfacet
  facet normal 0.831443 0.55561 0
    outer loop
      vertex 31.5808 15.0808 10
      vertex 31.299 15.5025 0
      vertex 31.299 15.5025 10
    endloop
  endfacet
  facet normal 0.831443 0.55561 0
    outer loop
      vertex 31.299 15.5025 0
      vertex 31.5808 15.0808 10
      vertex 31.5808 15.0808 0
    endloop
  endfacet
  facet normal 0.98077 -0.195168 0
    outer loop
      vertex 31.2 16 10
      vertex 31.299 16.4975 0
      vertex 31.299 16.4975 10
    endloop
  endfacet
  facet normal 0.98077 -0.195168 0
    outer loop
      vertex 31.299 16.4975 0
      vertex 31.2 16 10
      vertex 31.2 16 0
    endloop
  endfacet
  facet normal 0.55561 -0.831443 0
    outer loop
      vertex 31.5808 16.9192 0
      vertex 32.0025 17.201 10
      vertex 31.5808 16.9192 10
    endloop
  endfacet
  facet normal 0.55561 -0.831443 0
    outer loop
      vertex 32.0025 17.201 10
      vertex 31.5808 16.9192 0
      vertex 32.0025 17.201 0
    endloop
  endfacet
  facet normal 0.55561 0.831443 -0
    outer loop
      vertex 32.0025 14.799 0
      vertex 31.5808 15.0808 10
      vertex 32.0025 14.799 10
    endloop
  endfacet
  facet normal 0.55561 0.831443 0
    outer loop
      vertex 31.5808 15.0808 10
      vertex 32.0025 14.799 0
      vertex 31.5808 15.0808 0
    endloop
  endfacet
  facet normal -0.831443 -0.55561 0
    outer loop
      vertex 75.701 16.4975 0
      vertex 75.4192 16.9192 10
      vertex 75.4192 16.9192 0
    endloop
  endfacet
  facet normal -0.831443 -0.55561 0
    outer loop
      vertex 75.4192 16.9192 10
      vertex 75.701 16.4975 0
      vertex 75.701 16.4975 10
    endloop
  endfacet
  facet normal -0.98077 -0.195168 0
    outer loop
      vertex 75.8 16 0
      vertex 75.701 16.4975 10
      vertex 75.701 16.4975 0
    endloop
  endfacet
  facet normal -0.98077 -0.195168 0
    outer loop
      vertex 75.701 16.4975 10
      vertex 75.8 16 0
      vertex 75.8 16 10
    endloop
  endfacet
  facet normal -0.55561 -0.831443 0
    outer loop
      vertex 74.9975 17.201 0
      vertex 75.4192 16.9192 10
      vertex 74.9975 17.201 10
    endloop
  endfacet
  facet normal -0.55561 -0.831443 -0
    outer loop
      vertex 75.4192 16.9192 10
      vertex 74.9975 17.201 0
      vertex 75.4192 16.9192 0
    endloop
  endfacet
  facet normal 0.98077 0.195168 0
    outer loop
      vertex 73.299 15.5025 10
      vertex 73.2 16 0
      vertex 73.2 16 10
    endloop
  endfacet
  facet normal 0.98077 0.195168 0
    outer loop
      vertex 73.2 16 0
      vertex 73.299 15.5025 10
      vertex 73.299 15.5025 0
    endloop
  endfacet
  facet normal 0.195168 -0.98077 0
    outer loop
      vertex 74.0025 17.201 0
      vertex 74.5 17.3 10
      vertex 74.0025 17.201 10
    endloop
  endfacet
  facet normal 0.195168 -0.98077 0
    outer loop
      vertex 74.5 17.3 10
      vertex 74.0025 17.201 0
      vertex 74.5 17.3 0
    endloop
  endfacet
  facet normal 0.831443 -0.55561 0
    outer loop
      vertex 73.299 16.4975 10
      vertex 73.5808 16.9192 0
      vertex 73.5808 16.9192 10
    endloop
  endfacet
  facet normal 0.831443 -0.55561 0
    outer loop
      vertex 73.5808 16.9192 0
      vertex 73.299 16.4975 10
      vertex 73.299 16.4975 0
    endloop
  endfacet
  facet normal -0.195168 0.98077 0
    outer loop
      vertex 74.9975 14.799 0
      vertex 74.5 14.7 10
      vertex 74.9975 14.799 10
    endloop
  endfacet
  facet normal -0.195168 0.98077 0
    outer loop
      vertex 74.5 14.7 10
      vertex 74.9975 14.799 0
      vertex 74.5 14.7 0
    endloop
  endfacet
  facet normal 0.195168 0.98077 -0
    outer loop
      vertex 74.5 14.7 0
      vertex 74.0025 14.799 10
      vertex 74.5 14.7 10
    endloop
  endfacet
  facet normal 0.195168 0.98077 0
    outer loop
      vertex 74.0025 14.799 10
      vertex 74.5 14.7 0
      vertex 74.0025 14.799 0
    endloop
  endfacet
  facet normal -0.98077 0.195168 0
    outer loop
      vertex 75.701 15.5025 0
      vertex 75.8 16 10
      vertex 75.8 16 0
    endloop
  endfacet
  facet normal -0.98077 0.195168 0
    outer loop
      vertex 75.8 16 10
      vertex 75.701 15.5025 0
      vertex 75.701 15.5025 10
    endloop
  endfacet
  facet normal -0.195168 -0.98077 0
    outer loop
      vertex 74.5 17.3 0
      vertex 74.9975 17.201 10
      vertex 74.5 17.3 10
    endloop
  endfacet
  facet normal -0.195168 -0.98077 -0
    outer loop
      vertex 74.9975 17.201 10
      vertex 74.5 17.3 0
      vertex 74.9975 17.201 0
    endloop
  endfacet
  facet normal -0.55561 0.831443 0
    outer loop
      vertex 75.4192 15.0808 0
      vertex 74.9975 14.799 10
      vertex 75.4192 15.0808 10
    endloop
  endfacet
  facet normal -0.55561 0.831443 0
    outer loop
      vertex 74.9975 14.799 10
      vertex 75.4192 15.0808 0
      vertex 74.9975 14.799 0
    endloop
  endfacet
  facet normal -0.831443 0.55561 0
    outer loop
      vertex 75.4192 15.0808 0
      vertex 75.701 15.5025 10
      vertex 75.701 15.5025 0
    endloop
  endfacet
  facet normal -0.831443 0.55561 0
    outer loop
      vertex 75.701 15.5025 10
      vertex 75.4192 15.0808 0
      vertex 75.4192 15.0808 10
    endloop
  endfacet
  facet normal 0.831443 0.55561 0
    outer loop
      vertex 73.5808 15.0808 10
      vertex 73.299 15.5025 0
      vertex 73.299 15.5025 10
    endloop
  endfacet
  facet normal 0.831443 0.55561 0
    outer loop
      vertex 73.299 15.5025 0
      vertex 73.5808 15.0808 10
      vertex 73.5808 15.0808 0
    endloop
  endfacet
  facet normal 0.98077 -0.195168 0
    outer loop
      vertex 73.2 16 10
      vertex 73.299 16.4975 0
      vertex 73.299 16.4975 10
    endloop
  endfacet
  facet normal 0.98077 -0.195168 0
    outer loop
      vertex 73.299 16.4975 0
      vertex 73.2 16 10
      vertex 73.2 16 0
    endloop
  endfacet
  facet normal 0.55561 -0.831443 0
    outer loop
      vertex 73.5808 16.9192 0
      vertex 74.0025 17.201 10
      vertex 73.5808 16.9192 10
    endloop
  endfacet
  facet normal 0.55561 -0.831443 0
    outer loop
      vertex 74.0025 17.201 10
      vertex 73.5808 16.9192 0
      vertex 74.0025 17.201 0
    endloop
  endfacet
  facet normal 0.55561 0.831443 -0
    outer loop
      vertex 74.0025 14.799 0
      vertex 73.5808 15.0808 10
      vertex 74.0025 14.799 10
    endloop
  endfacet
  facet normal 0.55561 0.831443 0
    outer loop
      vertex 73.5808 15.0808 10
      vertex 74.0025 14.799 0
      vertex 73.5808 15.0808 0
    endloop
  endfacet
  facet normal -0.831443 -0.55561 0
    outer loop
      vertex 33.701 94.4975 0
      vertex 33.4192 94.9192 10
      vertex 33.4192 94.9192 0
    endloop
  endfacet
  facet normal -0.831443 -0.55561 0
    outer loop
      vertex 33.4192 94.9192 10
      vertex 33.701 94.4975 0
      vertex 33.701 94.4975 10
    endloop
  endfacet
  facet normal -0.98077 -0.195168 0
    outer loop
      vertex 33.8 94 0
      vertex 33.701 94.4975 10
      vertex 33.701 94.4975 0
    endloop
  endfacet
  facet normal -0.98077 -0.195168 0
    outer loop
      vertex 33.701 94.4975 10
      vertex 33.8 94 0
      vertex 33.8 94 10
    endloop
  endfacet
  facet normal -0.55561 -0.831443 0
    outer loop
      vertex 32.9975 95.201 0
      vertex 33.4192 94.9192 10
      vertex 32.9975 95.201 10
    endloop
  endfacet
  facet normal -0.55561 -0.831443 -0
    outer loop
      vertex 33.4192 94.9192 10
      vertex 32.9975 95.201 0
      vertex 33.4192 94.9192 0
    endloop
  endfacet
  facet normal 0.98077 0.195168 0
    outer loop
      vertex 31.299 93.5025 10
      vertex 31.2 94 0
      vertex 31.2 94 10
    endloop
  endfacet
  facet normal 0.98077 0.195168 0
    outer loop
      vertex 31.2 94 0
      vertex 31.299 93.5025 10
      vertex 31.299 93.5025 0
    endloop
  endfacet
  facet normal 0.195168 -0.98077 0
    outer loop
      vertex 32.0025 95.201 0
      vertex 32.5 95.3 10
      vertex 32.0025 95.201 10
    endloop
  endfacet
  facet normal 0.195168 -0.98077 0
    outer loop
      vertex 32.5 95.3 10
      vertex 32.0025 95.201 0
      vertex 32.5 95.3 0
    endloop
  endfacet
  facet normal 0.831443 -0.55561 0
    outer loop
      vertex 31.299 94.4975 10
      vertex 31.5808 94.9192 0
      vertex 31.5808 94.9192 10
    endloop
  endfacet
  facet normal 0.831443 -0.55561 0
    outer loop
      vertex 31.5808 94.9192 0
      vertex 31.299 94.4975 10
      vertex 31.299 94.4975 0
    endloop
  endfacet
  facet normal -0.195168 0.98077 0
    outer loop
      vertex 32.9975 92.799 0
      vertex 32.5 92.7 10
      vertex 32.9975 92.799 10
    endloop
  endfacet
  facet normal -0.195168 0.98077 0
    outer loop
      vertex 32.5 92.7 10
      vertex 32.9975 92.799 0
      vertex 32.5 92.7 0
    endloop
  endfacet
  facet normal 0.195168 0.98077 -0
    outer loop
      vertex 32.5 92.7 0
      vertex 32.0025 92.799 10
      vertex 32.5 92.7 10
    endloop
  endfacet
  facet normal 0.195168 0.98077 0
    outer loop
      vertex 32.0025 92.799 10
      vertex 32.5 92.7 0
      vertex 32.0025 92.799 0
    endloop
  endfacet
  facet normal -0.98077 0.195168 0
    outer loop
      vertex 33.701 93.5025 0
      vertex 33.8 94 10
      vertex 33.8 94 0
    endloop
  endfacet
  facet normal -0.98077 0.195168 0
    outer loop
      vertex 33.8 94 10
      vertex 33.701 93.5025 0
      vertex 33.701 93.5025 10
    endloop
  endfacet
  facet normal -0.195168 -0.98077 0
    outer loop
      vertex 32.5 95.3 0
      vertex 32.9975 95.201 10
      vertex 32.5 95.3 10
    endloop
  endfacet
  facet normal -0.195168 -0.98077 -0
    outer loop
      vertex 32.9975 95.201 10
      vertex 32.5 95.3 0
      vertex 32.9975 95.201 0
    endloop
  endfacet
  facet normal -0.55561 0.831443 0
    outer loop
      vertex 33.4192 93.0808 0
      vertex 32.9975 92.799 10
      vertex 33.4192 93.0808 10
    endloop
  endfacet
  facet normal -0.55561 0.831443 0
    outer loop
      vertex 32.9975 92.799 10
      vertex 33.4192 93.0808 0
      vertex 32.9975 92.799 0
    endloop
  endfacet
  facet normal -0.831443 0.55561 0
    outer loop
      vertex 33.4192 93.0808 0
      vertex 33.701 93.5025 10
      vertex 33.701 93.5025 0
    endloop
  endfacet
  facet normal -0.831443 0.55561 0
    outer loop
      vertex 33.701 93.5025 10
      vertex 33.4192 93.0808 0
      vertex 33.4192 93.0808 10
    endloop
  endfacet
  facet normal 0.831443 0.55561 0
    outer loop
      vertex 31.5808 93.0808 10
      vertex 31.299 93.5025 0
      vertex 31.299 93.5025 10
    endloop
  endfacet
  facet normal 0.831443 0.55561 0
    outer loop
      vertex 31.299 93.5025 0
      vertex 31.5808 93.0808 10
      vertex 31.5808 93.0808 0
    endloop
  endfacet
  facet normal 0.98077 -0.195168 0
    outer loop
      vertex 31.2 94 10
      vertex 31.299 94.4975 0
      vertex 31.299 94.4975 10
    endloop
  endfacet
  facet normal 0.98077 -0.195168 0
    outer loop
      vertex 31.299 94.4975 0
      vertex 31.2 94 10
      vertex 31.2 94 0
    endloop
  endfacet
  facet normal 0.55561 -0.831443 0
    outer loop
      vertex 31.5808 94.9192 0
      vertex 32.0025 95.201 10
      vertex 31.5808 94.9192 10
    endloop
  endfacet
  facet normal 0.55561 -0.831443 0
    outer loop
      vertex 32.0025 95.201 10
      vertex 31.5808 94.9192 0
      vertex 32.0025 95.201 0
    endloop
  endfacet
  facet normal 0.55561 0.831443 -0
    outer loop
      vertex 32.0025 92.799 0
      vertex 31.5808 93.0808 10
      vertex 32.0025 92.799 10
    endloop
  endfacet
  facet normal 0.55561 0.831443 0
    outer loop
      vertex 31.5808 93.0808 10
      vertex 32.0025 92.799 0
      vertex 31.5808 93.0808 0
    endloop
  endfacet
  facet normal -0.831443 -0.55561 0
    outer loop
      vertex 75.701 94.4975 0
      vertex 75.4192 94.9192 10
      vertex 75.4192 94.9192 0
    endloop
  endfacet
  facet normal -0.831443 -0.55561 0
    outer loop
      vertex 75.4192 94.9192 10
      vertex 75.701 94.4975 0
      vertex 75.701 94.4975 10
    endloop
  endfacet
  facet normal -0.98077 -0.195168 0
    outer loop
      vertex 75.8 94 0
      vertex 75.701 94.4975 10
      vertex 75.701 94.4975 0
    endloop
  endfacet
  facet normal -0.98077 -0.195168 0
    outer loop
      vertex 75.701 94.4975 10
      vertex 75.8 94 0
      vertex 75.8 94 10
    endloop
  endfacet
  facet normal -0.55561 -0.831443 0
    outer loop
      vertex 74.9975 95.201 0
      vertex 75.4192 94.9192 10
      vertex 74.9975 95.201 10
    endloop
  endfacet
  facet normal -0.55561 -0.831443 -0
    outer loop
      vertex 75.4192 94.9192 10
      vertex 74.9975 95.201 0
      vertex 75.4192 94.9192 0
    endloop
  endfacet
  facet normal 0.98077 0.195168 0
    outer loop
      vertex 73.299 93.5025 10
      vertex 73.2 94 0
      vertex 73.2 94 10
    endloop
  endfacet
  facet normal 0.98077 0.195168 0
    outer loop
      vertex 73.2 94 0
      vertex 73.299 93.5025 10
      vertex 73.299 93.5025 0
    endloop
  endfacet
  facet normal 0.195168 -0.98077 0
    outer loop
      vertex 74.0025 95.201 0
      vertex 74.5 95.3 10
      vertex 74.0025 95.201 10
    endloop
  endfacet
  facet normal 0.195168 -0.98077 0
    outer loop
      vertex 74.5 95.3 10
      vertex 74.0025 95.201 0
      vertex 74.5 95.3 0
    endloop
  endfacet
  facet normal 0.831443 -0.55561 0
    outer loop
      vertex 73.299 94.4975 10
      vertex 73.5808 94.9192 0
      vertex 73.5808 94.9192 10
    endloop
  endfacet
  facet normal 0.831443 -0.55561 0
    outer loop
      vertex 73.5808 94.9192 0
      vertex 73.299 94.4975 10
      vertex 73.299 94.4975 0
    endloop
  endfacet
  facet normal -0.195168 0.98077 0
    outer loop
      vertex 74.9975 92.799 0
      vertex 74.5 92.7 10
      vertex 74.9975 92.799 10
    endloop
  endfacet
  facet normal -0.195168 0.98077 0
    outer loop
      vertex 74.5 92.7 10
      vertex 74.9975 92.799 0
      vertex 74.5 92.7 0
    endloop
  endfacet
  facet normal 0.195168 0.98077 -0
    outer loop
      vertex 74.5 92.7 0
      vertex 74.0025 92.799 10
      vertex 74.5 92.7 10
    endloop
  endfacet
  facet normal 0.195168 0.98077 0
    outer loop
      vertex 74.0025 92.799 10
      vertex 74.5 92.7 0
      vertex 74.0025 92.799 0
    endloop
  endfacet
  facet normal -0.98077 0.195168 0
    outer loop
      vertex 75.701 93.5025 0
      vertex 75.8 94 10
      vertex 75.8 94 0
    endloop
  endfacet
  facet normal -0.98077 0.195168 0
    outer loop
      vertex 75.8 94 10
      vertex 75.701 93.5025 0
      vertex 75.701 93.5025 10
    endloop
  endfacet
  facet normal -0.195168 -0.98077 0
    outer loop
      vertex 74.5 95.3 0
      vertex 74.9975 95.201 10
      vertex 74.5 95.3 10
    endloop
  endfacet
  facet normal -0.195168 -0.98077 -0
    outer loop
      vertex 74.9975 95.201 10
      vertex 74.5 95.3 0
      vertex 74.9975 95.201 0
    endloop
  endfacet
  facet normal -0.55561 0.831443 0
    outer loop
      vertex 75.4192 93.0808 0
      vertex 74.9975 92.799 10
      vertex 75.4192 93.0808 10
    endloop
  endfacet
  facet normal -0.55561 0.831443 0
    outer loop
      vertex 74.9975 92.799 10
      vertex 75.4192 93.0808 0
      vertex 74.9975 92.799 0
    endloop
  endfacet
  facet normal -0.831443 0.55561 0
    outer loop
      vertex 75.4192 93.0808 0
      vertex 75.701 93.5025 10
      vertex 75.701 93.5025 0
    endloop
  endfacet
  facet normal -0.831443 0.55561 0
    outer loop
      vertex 75.701 93.5025 10
      vertex 75.4192 93.0808 0
      vertex 75.4192 93.0808 10
    endloop
  endfacet
  facet normal 0.831443 0.55561 0
    outer loop
      vertex 73.5808 93.0808 10
      vertex 73.299 93.5025 0
      vertex 73.299 93.5025 10
    endloop
  endfacet
  facet normal 0.831443 0.55561 0
    outer loop
      vertex 73.299 93.5025 0
      vertex 73.5808 93.0808 10
      vertex 73.5808 93.0808 0
    endloop
  endfacet
  facet normal 0.55561 -0.831443 0
    outer loop
      vertex 73.5808 94.9192 0
      vertex 74.0025 95.201 10
      vertex 73.5808 94.9192 10
    endloop
  endfacet
  facet normal 0.55561 -0.831443 0
    outer loop
      vertex 74.0025 95.201 10
      vertex 73.5808 94.9192 0
      vertex 74.0025 95.201 0
    endloop
  endfacet
  facet normal 0.98077 -0.195168 0
    outer loop
      vertex 73.2 94 10
      vertex 73.299 94.4975 0
      vertex 73.299 94.4975 10
    endloop
  endfacet
  facet normal 0.98077 -0.195168 0
    outer loop
      vertex 73.299 94.4975 0
      vertex 73.2 94 10
      vertex 73.2 94 0
    endloop
  endfacet
  facet normal 0.55561 0.831443 -0
    outer loop
      vertex 74.0025 92.799 0
      vertex 73.5808 93.0808 10
      vertex 74.0025 92.799 10
    endloop
  endfacet
  facet normal 0.55561 0.831443 0
    outer loop
      vertex 73.5808 93.0808 10
      vertex 74.0025 92.799 0
      vertex 73.5808 93.0808 0
    endloop
  endfacet
endsolid OpenSCAD_Model
